<svg width="16" height="15" viewBox="0 0 16 15" fill="none" xmlns="http://www.w3.org/2000/svg">
<path d="M7.70484 6.44587e-07C3.4479 -0.00172072 0 3.44446 0 7.69796C0 11.0615 2.15687 13.9207 5.16066 14.9707C5.56518 15.0723 5.50321 14.7848 5.50321 14.5886V13.2545C3.16732 13.5282 3.07264 11.9824 2.916 11.7242C2.59927 11.1837 1.85047 11.046 2.07425 10.7878C2.60615 10.5141 3.14838 10.8567 3.77668 11.7845C4.23112 12.4575 5.11763 12.3439 5.5669 12.232C5.66502 11.8275 5.87503 11.466 6.16422 11.1854C3.74398 10.7517 2.73525 9.27473 2.73525 7.51893C2.73525 6.66686 3.01584 5.88364 3.56667 5.25189C3.21552 4.21047 3.59938 3.3188 3.65102 3.18625C4.65114 3.09674 5.69084 3.90234 5.77175 3.96603C6.3398 3.81283 6.98875 3.73193 7.71517 3.73193C8.44503 3.73193 9.09571 3.81627 9.66892 3.9712C9.86344 3.82316 10.8274 3.13117 11.7569 3.21552C11.8069 3.34806 12.1821 4.21907 11.8516 5.24673C12.4093 5.88019 12.6934 6.6703 12.6934 7.5241C12.6934 9.28334 11.6778 10.762 9.25063 11.1889C9.45852 11.3933 9.62359 11.6372 9.7362 11.9061C9.8488 12.1751 9.90669 12.4638 9.90647 12.7553V14.6919C9.92024 14.8468 9.90647 15 10.1647 15C13.2132 13.9723 15.408 11.0925 15.408 7.69968C15.408 3.44446 11.9583 6.44587e-07 7.70484 6.44587e-07Z" fill="black"/>
</svg>
