<svg width="74" height="45" viewBox="0 0 74 45" fill="none" xmlns="http://www.w3.org/2000/svg">
<path d="M71.8235 0H1.76471C0.790086 0 0 0.790086 0 1.76471V43.2353C0 44.2099 0.790086 45 1.76471 45H71.8235C72.7981 45 73.5882 44.2099 73.5882 43.2353V1.76471C73.5882 0.790086 72.7981 0 71.8235 0Z" fill="#1E1E1E"/>
<path d="M12.0703 9.45911L12.122 10.6999C12.9423 9.73485 14.0487 9.2523 15.4412 9.2523C17.006 9.2523 18.071 9.85202 18.6362 11.0515C19.0085 10.5138 19.491 10.0795 20.084 9.74863C20.6836 9.41774 21.3902 9.2523 22.2035 9.2523C24.6577 9.2523 25.9054 10.5517 25.9467 13.1505V20.6471H24.0337V13.2643C24.0337 12.4646 23.8511 11.8683 23.4858 11.4754C23.1205 11.0756 22.5069 10.8757 21.6452 10.8757C20.9352 10.8757 20.3458 11.0894 19.8771 11.5168C19.4082 11.9373 19.1361 12.506 19.0602 13.2229V20.6471H17.137V13.3159C17.137 11.6891 16.3408 10.8757 14.7484 10.8757C13.4938 10.8757 12.6356 11.4099 12.1737 12.4784V20.6471H10.2608V9.45911H12.0703ZM31.9647 15.4667L30.7652 16.7178V20.6471H28.8522V4.76471H30.7652V14.3706L31.7889 13.1402L35.2735 9.45911H37.5999L33.2467 14.1328L38.1067 20.6471H35.8629L31.9647 15.4667ZM41.4879 10.8136C42.3357 9.77275 43.4386 9.2523 44.7967 9.2523C47.1611 9.2523 48.3537 10.5862 48.3743 13.2539V20.6471H46.4614V13.2436C46.4545 12.4371 46.2685 11.8408 45.903 11.4547C45.5446 11.0687 44.9827 10.8757 44.2175 10.8757C43.5972 10.8757 43.0527 11.0411 42.584 11.372C42.1151 11.7029 41.7498 12.1372 41.4879 12.6749V20.6471H39.5749V4.76471H41.4879V10.8136ZM53.3169 20.6471H51.4039V4.76471H53.3169V20.6471ZM16.7854 35.3266C16.7854 34.8095 16.5889 34.4097 16.196 34.1271C15.81 33.8375 15.131 33.5894 14.159 33.3826C13.1939 33.1758 12.4253 32.9277 11.8532 32.6381C11.2879 32.3487 10.8674 32.0038 10.5917 31.6041C10.3229 31.2042 10.1884 30.7287 10.1884 30.1772C10.1884 29.2604 10.5745 28.4848 11.3465 27.8506C12.1255 27.2165 13.1181 26.8994 14.3245 26.8994C15.5928 26.8994 16.62 27.2268 17.4058 27.8817C18.1985 28.5365 18.5949 29.3741 18.5949 30.3942H16.6717C16.6717 29.8705 16.4476 29.4189 15.9996 29.0398C15.5584 28.6606 15 28.4711 14.3245 28.4711C13.6282 28.4711 13.0836 28.6227 12.6907 28.926C12.2978 29.2294 12.1013 29.6257 12.1013 30.1151C12.1013 30.5771 12.284 30.9251 12.6494 31.1594C13.0147 31.3938 13.673 31.6179 14.6243 31.8316C15.5825 32.0453 16.358 32.3003 16.9508 32.5968C17.5437 32.8932 17.9815 33.2517 18.264 33.6722C18.5536 34.0857 18.6983 34.5923 18.6983 35.1921C18.6983 36.1917 18.2984 36.9948 17.4989 37.6013C16.6992 38.2011 15.6618 38.5009 14.3865 38.5009C13.4904 38.5009 12.6976 38.3423 12.0083 38.0254C11.3189 37.7082 10.7778 37.2671 10.3849 36.7018C9.99887 36.1295 9.80585 35.5126 9.80585 34.8508H11.7188C11.7532 35.4919 12.0083 36.0021 12.4839 36.3812C12.9665 36.7535 13.6007 36.9395 14.3865 36.9395C15.1103 36.9395 15.6893 36.7948 16.1236 36.5052C16.5648 36.2089 16.7854 35.8159 16.7854 35.3266ZM23.1032 28.4606C23.9511 27.4198 25.0541 26.8994 26.412 26.8994C28.7764 26.8994 29.969 28.2332 29.9896 30.9009V38.2941H28.0768V30.8907C28.0698 30.0842 27.8838 29.4879 27.5185 29.1018C27.1599 28.7158 26.5982 28.5228 25.833 28.5228C25.2125 28.5228 24.668 28.6881 24.1992 29.019C23.7305 29.3499 23.3651 29.7842 23.1032 30.3219V38.2941H21.1902V22.4118H23.1032V28.4606ZM42.3048 32.8242C42.3048 34.5268 41.9153 35.8987 41.1362 36.9395C40.3572 37.9805 39.3027 38.5009 37.9722 38.5009C36.6141 38.5009 35.5458 38.07 34.7668 37.2085V42.5956H32.8539V27.1062H34.6013L34.6945 28.347C35.4734 27.3819 36.5555 26.8994 37.9412 26.8994C39.2854 26.8994 40.347 27.4061 41.1259 28.4194C41.9118 29.4327 42.3048 30.8423 42.3048 32.6485V32.8242ZM40.3918 32.607C40.3918 31.3456 40.1229 30.3494 39.5852 29.6188C39.0477 28.8881 38.31 28.5228 37.3724 28.5228C36.2144 28.5228 35.3458 29.0363 34.7668 30.0634V35.4092C35.3389 36.4295 36.2144 36.9395 37.3932 36.9395C38.31 36.9395 39.0372 36.5776 39.5749 35.8539C40.1195 35.1231 40.3918 34.0408 40.3918 32.607ZM47.8677 33.1138L46.6682 34.3648V38.2941H44.7552V22.4118H46.6682V32.0178L47.6919 30.7872L51.1765 27.1062H53.5031L49.1499 31.7799L54.0097 38.2941H51.7659L47.8677 33.1138ZM59.1694 35.6988L61.9405 27.1062H63.8947L59.8828 38.2941H58.4248L54.3715 27.1062H56.3259L59.1694 35.6988Z" fill="white"/>
</svg>
